<?xml version="1.0" standalone="no"?>
<!DOCTYPE svg PUBLIC "-//W3C//DTD SVG 20010904//EN"
 "http://www.w3.org/TR/2001/REC-SVG-20010904/DTD/svg10.dtd">
<svg version="1.0" xmlns="http://www.w3.org/2000/svg"
 width="1080.000000pt" height="1080.000000pt" viewBox="0 0 1080.000000 1080.000000"
 preserveAspectRatio="xMidYMid meet">

<g transform="translate(0.000000,1080.000000) scale(0.100000,-0.100000)"
fill="#000000" stroke="none">
<rect x="-1000" y="-1000" width="12000" height="12000" fill="#ffffff"/>
<path d="M3270 7940 l0 -810 -665 0 -665 0 0 -430 0 -430 665 0 665 0 0 -2050
0 -2050 415 0 415 0 0 1280 0 1280 791 -2 790 -3 684 -1275 684 -1275 481 -3
c264 -1 480 0 480 2 0 2 -330 610 -734 1351 l-735 1346 27 10 c295 112 502
240 693 429 294 290 443 606 521 1105 19 125 16 515 -6 655 -95 619 -371 1056
-848 1347 -329 200 -709 301 -1223 323 -126 5 -726 10 -1332 10 l-1103 0 0
-810z m2591 57 c202 -30 355 -75 494 -145 315 -157 505 -413 586 -790 30 -140
37 -427 15 -580 -41 -279 -138 -485 -305 -653 -169 -169 -386 -273 -691 -331
-112 -21 -140 -22 -987 -25 l-873 -4 0 401 0 400 650 0 650 0 0 430 0 430
-650 0 -650 0 0 446 0 445 828 -4 c691 -3 844 -6 933 -20z"/>
</g>
</svg>
