<svg xmlns="http://www.w3.org/2000/svg" width="1440" height="1440" viewBox="0 0 1440 1440" fill="none"><g clip-path="url(#clip0_1_2)">
<path d="M1440 1440H0V0H1440V1440Z" fill="white"></path>
<path d="M436 381.333V489.333H347.333H258.667V546.667V604H347.333H436V877.333V1150.67H491.333H546.667V980V809.333L652.133 809.6L757.467 810L848.667 980L939.867 1150L1004 1150.4C1039.2 1150.53 1068 1150.4 1068 1150.13C1068 1149.87 1024 1068.8 970.133 970L872.133 790.533L875.733 789.2C915.067 774.267 942.667 757.2 968.133 732C1007.33 693.333 1027.2 651.2 1037.6 584.667C1040.13 568 1039.73 516 1036.8 497.333C1024.13 414.8 987.333 356.533 923.733 317.733C879.867 291.067 829.2 277.6 760.667 274.667C743.867 274 663.867 273.333 583.067 273.333H436V381.333ZM781.467 373.733C808.4 377.733 828.8 383.733 847.333 393.067C889.333 414 914.667 448.133 925.467 498.4C929.467 517.067 930.4 555.333 927.467 575.733C922 612.933 909.067 640.4 886.8 662.8C864.267 685.333 835.333 699.2 794.667 706.933C779.733 709.733 776 709.867 663.067 710.267L546.667 710.8V657.333V604H633.333H720V546.667V489.333H633.333H546.667V429.867V370.533L657.067 371.067C749.2 371.467 769.6 371.867 781.467 373.733Z" fill="black"></path>
</g><defs>
<clipPath id="clip0_1_2">
<rect width="1440" height="1440" fill="white"></rect>
</clipPath>
</defs></svg>